<svg xmlns:xlink="http://www.w3.org/1999/xlink" xmlns="http://www.w3.org/2000/svg" width="193" height="29" viewBox="0 0 193 29" fill="none">
<path d="M0.560059 0.607999V27.74H5.04406V17.594H12.4921C18.6101 17.594 21.9541 14.25 21.9541 9.082C21.9541 3.952 18.6101 0.607999 12.4921 0.607999H0.560059ZM5.04406 13.87V4.332H11.8461C15.4561 4.332 17.3941 6.08 17.3941 9.082C17.3941 12.122 15.4561 13.87 11.8461 13.87H5.04406Z" fill="black" fill-opacity="0.4"/>
<path d="M32.4688 7.22C26.4648 7.22 22.5888 11.362 22.5888 17.708C22.5888 24.054 26.4648 28.196 32.4688 28.196C38.3968 28.196 42.2728 24.054 42.2728 17.708C42.2728 11.362 38.3968 7.22 32.4688 7.22ZM32.4688 24.89C29.0108 24.89 26.8448 22.192 26.8448 17.708C26.8448 13.224 29.0108 10.526 32.4688 10.526C35.8508 10.526 38.0168 13.224 38.0168 17.708C38.0168 22.192 35.8508 24.89 32.4688 24.89Z" fill="black" fill-opacity="0.4"/>
<path d="M48.6404 4.522V0.227999H44.4604V4.522H48.6404ZM48.6404 27.74V7.676H44.4604V27.74H48.6404Z" fill="black" fill-opacity="0.4"/>
<path d="M51.2488 7.676V27.74H55.4288V16.72C55.4288 12.73 57.7848 10.678 60.2548 10.678C63.0288 10.678 64.5488 11.97 64.5488 15.656V27.74H68.7288V14.44C68.7288 9.348 65.2708 7.22 61.6228 7.22C59.1148 7.22 56.9108 8.094 55.3908 10.298H55.2388V7.676H51.2488Z" fill="black" fill-opacity="0.4"/>
<path d="M79.6161 24.282C78.0581 24.282 77.3361 24.092 77.3361 22.23V10.716H81.6681V7.676H77.3361V2.014H73.1561V7.676H69.8881V10.716H73.1561V23.332C73.1561 26.98 74.8661 27.816 78.4761 27.816C79.5401 27.816 81.0221 27.778 81.4781 27.74V24.244C80.9081 24.282 80.0341 24.282 79.6161 24.282Z" fill="black" fill-opacity="0.4"/>
<path d="M103.373 18.202C102.613 21.546 100.333 24.662 95.9246 24.662C90.8706 24.662 87.6406 20.862 87.6406 14.136C87.6406 7.486 90.8706 3.686 95.9246 3.686C99.2686 3.686 101.891 5.548 103.031 8.588L107.401 7.676C105.843 3.382 101.625 0 95.9246 0C88.3626 0 83.0806 5.396 83.0806 14.136C83.0806 22.952 88.3626 28.348 95.9246 28.348C102.651 28.348 106.831 23.864 107.895 18.848L103.373 18.202Z" fill="black" fill-opacity="0.4"/>
<path d="M127.324 27.74C126.83 26.828 126.792 25.688 126.792 23.484V13.376C126.792 9.956 124.588 7.22 118.698 7.22C114.29 7.22 110.946 9.386 110.034 12.996L113.872 13.832C114.594 11.552 116.532 10.526 118.546 10.526C121.51 10.526 122.612 11.704 122.612 13.414C122.612 14.668 121.624 15.314 117.824 15.732C112.428 16.264 109.274 17.86 109.274 22.192C109.274 25.916 112.352 28.196 116.038 28.196C118.508 28.196 121.358 27.284 122.65 25.27C122.65 26.41 122.954 27.398 123.258 27.74H127.324ZM122.612 19.836C122.612 23.56 119.382 25.004 116.836 25.004C114.822 25.004 113.53 24.016 113.53 22.154C113.53 20.026 115.506 19.038 117.558 18.772C119.724 18.506 121.966 18.164 122.612 17.518V19.836Z" fill="black" fill-opacity="0.4"/>
<path d="M129.216 27.74H133.396V17.138C133.396 12.768 135.79 11.21 139.02 11.21C139.78 11.21 140.502 11.324 140.996 11.362V7.41C140.54 7.296 139.894 7.22 139.286 7.22C136.436 7.22 134.346 8.74 133.358 10.678H133.206V7.676H129.216V27.74Z" fill="black" fill-opacity="0.4"/>
<path d="M150.161 7.22C144.879 7.22 141.079 11.362 141.079 17.708C141.079 24.054 144.879 28.196 150.161 28.196C152.973 28.196 155.291 27.056 156.355 25.194H156.507V27.74H160.497V0.227999H156.317V9.956H156.165C155.101 8.322 152.935 7.22 150.161 7.22ZM150.997 24.852C147.539 24.852 145.335 22.192 145.335 17.708C145.335 13.224 147.539 10.526 150.997 10.526C154.379 10.526 156.583 13.224 156.583 17.708C156.583 22.192 154.379 24.852 150.997 24.852Z" fill="black" fill-opacity="0.4"/>
<path d="M163.025 0.607999V3.268H167.547V14.212H170.739V3.268H175.261V0.607999H163.025ZM184.837 9.31H184.685L182.177 0.607999H177.427V14.212H180.353V4.636H180.505L183.545 14.212H185.863L188.865 4.636H189.017V14.212H192.019V0.607999H187.345L184.837 9.31Z" fill="black" fill-opacity="0.4"/>
</svg>