<svg width="284" height="52" viewBox="0 0 284 52" fill="none" xmlns="http://www.w3.org/2000/svg">
<g clip-path="url(#clip0_150_542)">
<path d="M283.5 0.600098V12.4001H281.5V4.6001L278.4 12.4001H276.4L273.2 4.4001V12.4001H271.3V0.600098H273.8L277.4 10.1001L281.1 0.600098H283.5V0.600098ZM260.4 0.600098H269.7V2.4001H266V12.4001H264V2.4001H260.4V0.600098Z" fill="black"/>
<path d="M0 28.1H5C5.8 34.5 9.5 38.4 17.7 38.4C23.4 38.4 28.5 36.3 28.5 30.8C28.5 27.4 26.8 25.3 21.3 24L13 22.1C7.5 20.8 1.2 18.7 1.2 11C1.2 4.3 7.7 0 16 0C25.7 0 30.5 4.9 31.6 13.5H26.6C25.6 7 21.7 4.4 16.1 4.4C10.8 4.4 6.4 6.6 6.4 11C6.4 15.1 9.7 16.6 14.9 17.8L22.7 19.5C27.9 20.6 33.7 23.2 33.7 30.6C33.7 38.9 26.3 42.8 17.7 42.8C6.2 42.8 0.4 36.4 0 28.1Z" fill="black"/>
<path d="M36.7 30.7998V12.3998H41.5V30.5998C41.5 35.8998 44.5 38.6998 48.7 38.6998C52.7 38.6998 57 35.4998 57 29.5998V12.2998H61.7999V41.7998H57V37.6998C54.9 40.8998 51.4 42.6998 47.2 42.6998C41.3 42.7998 36.7 38.5998 36.7 30.7998Z" fill="black"/>
<path d="M101 24.2001H118.3C117.9 18.5001 115 15.7001 110 15.7001C104.5 15.6001 101.8 19.5001 101 24.2001ZM122.9 28.2001H100.8C101.1 33.7001 103.7 38.6001 109.9 38.6001C114.7 38.6001 116.9 36.1001 117.9 32.5001H122.7C121.4 38.6001 117 42.6001 109.9 42.6001C101.3 42.6001 95.8999 36.0001 95.8999 27.1001C95.8999 18.2001 101.4 11.6001 109.9 11.6001C116.8 11.6001 123.6 15.7001 122.9 28.2001Z" fill="black"/>
<path d="M126.3 12.3999H131.1V17.3999C133 14.0999 136.2 12.3999 139.2 12.3999H142.3V16.8999H138.5C134.4 16.8999 131 19.9999 131 25.8999V41.8999H126.2L126.3 12.3999Z" fill="black"/>
<path d="M145.5 0.600098H150.3V41.9001H145.5V0.600098Z" fill="black"/>
<path d="M173.4 27.0999L165 28.3999C160.4 29.0999 158.4 30.6999 158.4 33.7999C158.4 36.8999 160.8 38.6999 164.5 38.6999C169.8 38.6999 173.4 34.7999 173.4 28.7999V27.0999ZM174.2 41.8999C174 40.3999 173.8 38.6999 173.7 36.6999C171.5 40.5999 167.9 42.5999 163.3 42.5999C157.2 42.5999 153.3 39.1999 153.3 33.8999C153.3 27.0999 159.2 25.3999 167.5 24.3999L173.4 23.6999V23.1999C173.4 17.6999 171.4 15.2999 166.5 15.2999C162.4 15.2999 159.7 17.4999 159.4 21.2999H154.2C154.8 15.2999 159.5 11.3999 166.4 11.3999C174.7 11.3999 178.2 15.0999 178.2 23.7999V31.6999C178.2 36.2999 178.5 39.3999 179.1 41.7999L174.2 41.8999Z" fill="black"/>
<path d="M196.8 37.8998V41.8998H192C187 41.8998 184.7 39.5998 184.7 34.6998V16.2998H179.5V12.2998H184.7V4.7998H189.5V12.2998H196.1V16.2998H189.5V34.3998C189.5 36.8998 190.2 37.7998 192.5 37.7998L196.8 37.8998Z" fill="black"/>
<path d="M199.7 12.4001H204.5V41.9001H199.7V12.4001ZM199.4 0.600098H205V6.9001H199.4V0.600098Z" fill="black"/>
<path d="M234.5 12.3999L223.8 41.8999H217.7L207 12.3999H212L220.8 37.6999L229.6 12.3999H234.5V12.3999Z" fill="black"/>
<path d="M238.4 24.2001H255.7C255.3 18.5001 252.4 15.7001 247.4 15.7001C241.9 15.6001 239.2 19.5001 238.4 24.2001ZM260.3 28.2001H238.2C238.5 33.7001 241.1 38.6001 247.3 38.6001C252.1 38.6001 254.3 36.1001 255.3 32.5001H260.1C258.8 38.6001 254.4 42.6001 247.3 42.6001C238.7 42.6001 233.3 36.0001 233.3 27.1001C233.3 18.2001 238.8 11.6001 247.3 11.6001C254.2 11.6001 261 15.7001 260.3 28.2001Z" fill="black"/>
<path d="M88.5999 27.2001C88.5999 20.6001 85.4999 15.5001 79.7999 15.5001C73.3999 15.5001 70.3999 21.2001 70.3999 27.1001C70.3999 33.0001 73.2999 38.7001 79.7999 38.7001C85.4999 38.7001 88.5999 33.8001 88.5999 27.2001ZM65.8999 12.4001H70.6999V16.9001C72.7999 13.4001 76.3999 11.6001 80.3999 11.6001C87.8999 11.6001 93.4999 18.0001 93.4999 27.2001C93.4999 36.4001 87.8999 42.8001 80.3999 42.8001C76.3999 42.8001 72.9999 41.1001 70.6999 37.4001V51.7001H65.8999V12.4001Z" fill="black"/>
</g>
<defs>
<clipPath id="clip0_150_542">
<rect width="283.5" height="51.7" fill="white"/>
</clipPath>
</defs>
</svg>
